<?xml version="1.0" encoding="UTF-8" standalone="no"?>
<svg
   xmlns:dc="http://purl.org/dc/elements/1.1/"
   xmlns:cc="http://creativecommons.org/ns#"
   xmlns:rdf="http://www.w3.org/1999/02/22-rdf-syntax-ns#"
   xmlns:svg="http://www.w3.org/2000/svg"
   xmlns="http://www.w3.org/2000/svg"
   id="svg4"
   version="1.1"
   fill="none"
   viewBox="0 0 1059 89"
   height="89"
   width="1059">
  <defs
     id="defs8" />
  <path
     style="fill:none;fill-opacity:1;opacity:1;stroke:#fffefe;stroke-opacity:1"
     id="path2"
     fill="white"
     d="M55.2061 1.72C65.6928 1.72 73.8828 4.23333 79.7761 9.25999C85.7561 14.2 88.7461 21.0467 88.7461 29.8V31.1C88.7461 39.8533 85.7561 46.7433 79.7761 51.77C73.8828 56.7967 65.6928 59.31 55.2061 59.31H23.4861V87H0.476094V1.72H55.2061ZM54.6861 39.29C58.1528 39.29 60.7961 38.5967 62.6161 37.21C64.4361 35.8233 65.3461 33.7867 65.3461 31.1V29.8C65.3461 27.2 64.4361 25.2067 62.6161 23.82C60.7961 22.4333 58.1528 21.74 54.6861 21.74H23.4861V39.29H54.6861ZM187.17 31.23C187.17 38.1633 185.09 43.7967 180.93 48.13C176.77 52.4633 170.747 55.2367 162.86 56.45L186.65 83.49V87H160.65L135.3 57.1H121.91V87H98.9003V1.72H153.63C164.03 1.72 172.22 4.23333 178.2 9.25999C184.18 14.2867 187.17 21.1767 187.17 29.93V31.23ZM163.77 29.8C163.77 24.4267 160.217 21.74 153.11 21.74H121.91V39.29H153.11C156.577 39.29 159.22 38.5967 161.04 37.21C162.86 35.8233 163.77 33.7867 163.77 31.1V29.8ZM247.447 88.69C237.133 88.69 228.033 86.9133 220.147 83.36C212.347 79.72 206.323 74.6067 202.077 68.02C197.83 61.3467 195.707 53.6333 195.707 44.88V43.97C195.707 35.13 197.83 27.4167 202.077 20.83C206.323 14.1567 212.347 9.04333 220.147 5.49C228.033 1.85 237.133 0.0299962 247.447 0.0299962C257.933 0.0299962 267.077 1.85 274.877 5.49C282.677 9.04333 288.7 14.1567 292.947 20.83C297.193 27.4167 299.317 35.13 299.317 43.97V44.88C299.317 53.72 297.193 61.4333 292.947 68.02C288.7 74.6067 282.677 79.72 274.877 83.36C267.077 86.9133 257.933 88.69 247.447 88.69ZM247.447 67.24C266.427 67.24 275.917 59.9167 275.917 45.27V43.71C275.917 36.43 273.49 30.9267 268.637 27.2C263.87 23.3867 256.807 21.48 247.447 21.48C238.26 21.48 231.24 23.3867 226.387 27.2C221.533 31.0133 219.107 36.5167 219.107 43.71V45.27C219.107 52.4633 221.49 57.9233 226.257 61.65C231.023 65.3767 238.087 67.24 247.447 67.24ZM350.791 88.69C336.664 88.69 325.874 86.09 318.421 80.89C311.054 75.69 307.371 68.15 307.371 58.27V56.97H329.861V58.27C329.861 61.8233 331.724 64.5533 335.451 66.46C339.177 68.28 344.594 69.19 351.701 69.19C364.354 69.19 370.681 66.8067 370.681 62.04V61.13C370.681 59.3967 369.814 58.0533 368.081 57.1C366.347 56.06 363.531 55.2367 359.631 54.63L336.621 51.12C327.261 49.6467 320.241 47.0033 315.561 43.19C310.967 39.3767 308.671 34.22 308.671 27.72V26.42C308.671 18.1 312.224 11.6433 319.331 7.05C326.524 2.37 336.621 0.0299962 349.621 0.0299962C363.314 0.0299962 373.801 2.54333 381.081 7.57C388.447 12.51 392.131 19.66 392.131 29.02V30.06H369.771V29.02C369.771 22.6933 363.054 19.53 349.621 19.53C343.727 19.53 339.264 20.0933 336.231 21.22C333.197 22.26 331.681 23.82 331.681 25.9V26.81C331.681 28.2833 332.461 29.4533 334.021 30.32C335.667 31.1 338.397 31.7933 342.211 32.4L365.221 35.91C375.014 37.3833 382.251 40.1133 386.931 44.1C391.697 48 394.081 53.33 394.081 60.09V61.39C394.081 70.0567 390.267 76.7733 382.641 81.54C375.101 86.3067 364.484 88.69 350.791 88.69ZM460.964 1.72C471.45 1.72 479.64 4.23333 485.534 9.25999C491.514 14.2 494.504 21.0467 494.504 29.8V31.1C494.504 39.8533 491.514 46.7433 485.534 51.77C479.64 56.7967 471.45 59.31 460.964 59.31H429.244V87H406.234V1.72H460.964ZM460.444 39.29C463.91 39.29 466.554 38.5967 468.374 37.21C470.194 35.8233 471.104 33.7867 471.104 31.1V29.8C471.104 27.2 470.194 25.2067 468.374 23.82C466.554 22.4333 463.91 21.74 460.444 21.74H429.244V39.29H460.444ZM582.138 1.72V21.61H527.668V34.48H579.538V54.11H527.668V67.11H582.138V87H504.658V1.72H582.138ZM643.063 88.69C632.576 88.69 623.346 86.9133 615.373 83.36C607.486 79.72 601.376 74.6067 597.043 68.02C592.796 61.4333 590.673 53.72 590.673 44.88V43.97C590.673 35.13 592.796 27.4167 597.043 20.83C601.376 14.1567 607.486 9.04333 615.373 5.49C623.346 1.85 632.576 0.0299962 643.063 0.0299962C652.856 0.0299962 661.653 1.63333 669.453 4.84C677.253 8.04666 683.32 12.4667 687.653 18.1C692.073 23.7333 694.283 30.1033 694.283 37.21V38.25H670.753V37.21C670.753 32.4433 668.196 28.63 663.083 25.77C658.056 22.91 651.383 21.48 643.063 21.48C623.736 21.48 614.073 28.89 614.073 43.71V45.27C614.073 52.6367 616.456 58.14 621.223 61.78C625.99 65.42 633.27 67.24 643.063 67.24C651.643 67.24 658.403 65.8533 663.343 63.08C668.283 60.3067 670.753 56.4933 670.753 51.64V50.73H694.283V51.64C694.283 58.7467 692.073 65.1167 687.653 70.75C683.32 76.3833 677.253 80.8033 669.453 84.01C661.653 87.13 652.856 88.69 643.063 88.69ZM693.208 22.26V1.72H779.398V22.26H747.808V87H724.798V22.26H693.208ZM866.407 83.49V87H843.657L837.027 71.27H797.247L790.617 87H767.867V83.49L804.397 1.72H829.877L866.407 83.49ZM828.967 51.9L817.137 23.69L805.307 51.9H828.967ZM915.738 88.69C905.251 88.69 896.021 86.9133 888.048 83.36C880.161 79.72 874.051 74.6067 869.718 68.02C865.471 61.4333 863.348 53.72 863.348 44.88V43.97C863.348 35.13 865.471 27.4167 869.718 20.83C874.051 14.1567 880.161 9.04333 888.048 5.49C896.021 1.85 905.251 0.0299962 915.738 0.0299962C925.531 0.0299962 934.328 1.63333 942.128 4.84C949.928 8.04666 955.995 12.4667 960.328 18.1C964.748 23.7333 966.958 30.1033 966.958 37.21V38.25H943.428V37.21C943.428 32.4433 940.871 28.63 935.758 25.77C930.731 22.91 924.058 21.48 915.738 21.48C896.411 21.48 886.748 28.89 886.748 43.71V45.27C886.748 52.6367 889.131 58.14 893.898 61.78C898.665 65.42 905.945 67.24 915.738 67.24C924.318 67.24 931.078 65.8533 936.018 63.08C940.958 60.3067 943.428 56.4933 943.428 51.64V50.73H966.958V51.64C966.958 58.7467 964.748 65.1167 960.328 70.75C955.995 76.3833 949.928 80.8033 942.128 84.01C934.328 87.13 925.531 88.69 915.738 88.69ZM1058.46 1.72V5.23L1022.19 53.85V87H999.178V53.85L962.778 5.23V1.72H987.218L1010.75 33.96L1034.15 1.72H1058.46Z"
      />
</svg>
