<?xml version="1.0" encoding="UTF-8" standalone="no"?>
<svg
   xmlns:dc="http://purl.org/dc/elements/1.1/"
   xmlns:cc="http://creativecommons.org/ns#"
   xmlns:rdf="http://www.w3.org/1999/02/22-rdf-syntax-ns#"
   xmlns:svg="http://www.w3.org/2000/svg"
   xmlns="http://www.w3.org/2000/svg"
   id="svg4"
   version="1.1"
   fill="none"
   viewBox="0 0 103 47"
   height="47"
   width="103">
  <metadata
     id="metadata10">
    <rdf:RDF>
      <cc:Work
         rdf:about="">
        <dc:format>image/svg+xml</dc:format>
        <dc:type
           rdf:resource="http://purl.org/dc/dcmitype/StillImage" />
        <dc:title></dc:title>
      </cc:Work>
    </rdf:RDF>
  </metadata>
  <defs
     id="defs8" />
  <path
     id="path2"
     fill="#D3BB7B"
     d="M58.7191 20.5423C57.3558 20.5423 55.9925 16.5629 55.9925 15.595C55.9925 12.2609 56.6741 10.54 57.5506 9.67963C58.0374 9.24943 59.8876 8.60412 59.8876 8.60412C58.7191 7.95881 58.1348 7.85126 56.8689 8.17391C53.2659 9.14188 54.7266 16.8856 51.7079 20.0046C48.6891 16.9931 49.955 9.14188 46.2547 8.17391C45.0861 7.85126 44.5019 7.95881 43.3333 8.60412C43.3333 8.60412 44.9888 9.14188 45.4756 9.67963C46.3521 10.54 47.4232 12.2609 47.4232 15.595C47.4232 16.5629 46.1573 20.5423 44.6966 20.5423C39.9251 20.5423 38.6592 15.1648 37.4906 14.0892C36.3221 13.0137 34.764 12.6911 33.3034 12.5835C23.176 11.2929 13.633 6.23799 12.1723 5.59268C11.6854 5.37757 10.03 4.73227 9.44569 5.37757C8.76404 5.05492 1.65543 1.82838 0 0C0 0 7.5955 3.44165 8.76404 3.97941C9.34831 3.44165 10.9064 3.9794 11.4906 4.19451C12.9513 4.83982 24.5393 9.14188 34.5693 10.4325C36.03 10.6476 37.588 10.6476 38.7565 11.7231C39.9251 12.7986 39.5356 18.4989 44.3071 18.4989C45.6704 18.4989 45.8652 15.595 45.8652 14.627C45.8652 11.2929 44.794 10.2174 42.0674 10.2174C41.6779 10.2174 41.0936 11.2929 41.0936 11.2929C41.0936 9.67963 40.8989 8.38902 42.5543 7.5286C43.7228 6.77574 46.0599 6.23799 47.3258 6.56064C50.9288 7.5286 50.5393 13.9817 51.7079 16.6705C53.1685 14.0892 52.4869 7.5286 56.0899 6.56064C57.3558 6.23799 59.6929 6.77574 60.8614 7.42105C62.5168 8.38902 62.3221 9.57208 62.3221 11.1854C62.3221 11.1854 61.7378 10.1098 61.3483 10.1098C58.6217 10.1098 57.5506 11.1854 57.5506 14.5195C57.5506 15.4874 57.6479 18.3913 59.1086 18.3913C63.8801 18.3913 63.3932 13.3364 64.6592 12.2609C65.8277 11.1854 67.3857 11.1854 68.8464 10.9703C78.9738 9.67963 90.5618 4.83982 92.0225 4.08696C92.5093 3.87185 94.1648 3.22654 94.749 3.87185C95.9176 3.3341 98.0599 2.25858 99.2285 1.72082C100.105 1.29062 102.442 0.107551 102.929 1.50572C103.416 2.90389 101.273 4.83982 100.494 5.59268C99.1311 6.77574 97.573 7.95881 96.015 8.81922C94.7491 9.57208 92.8015 10.4325 91.2434 11.1854C92.3146 11.0778 94.749 10.4325 95.7228 10.2174C95.7228 13.4439 86.2771 17.2082 83.5506 18.2838C85.1086 18.1762 88.4195 17.2082 88.4195 17.2082C88.4195 18.9291 85.7903 21.2952 84.1348 22.0481C81.2135 23.5538 79.558 24.1991 76.9288 25.2746C77.3183 25.7048 79.0711 25.8124 79.0711 25.8124C77.1236 27.4256 72.4494 27.9634 70.794 27.8558C71.0861 29.1465 72.4494 30.1144 72.4494 30.1144C70.5992 31.6201 66.1198 30.5446 65.2434 30.0069C64.9513 31.2975 63.9775 31.9428 64.0749 33.4485C62.4195 33.4485 60.2771 32.4805 59.4981 31.2975C59.4981 31.2975 59.206 31.6201 59.0112 32.1579C58.5243 33.5561 59.4981 35.9222 59.985 36.46C64.5618 33.9863 62.3221 39.5789 62.3221 39.4714C62.0299 34.6316 59.7902 39.4714 59.7902 39.4714H59.5955C59.5955 37.5355 58.2322 36.8902 57.4532 36.6751C56.7715 36.5675 56.5768 37.643 56.5768 38.2883C56.5768 41.1922 58.9138 43.6659 58.0374 44.6339C57.4532 45.3867 56.1873 44.849 55.7977 44.0961C56.0899 45.7094 54.2397 46.6773 53.0711 45.1716C53.1685 46.3547 52.2921 47 51.8052 47C51.221 47 50.4419 46.3547 50.5393 45.1716C49.3708 46.6773 47.618 45.7094 47.8127 44.0961C47.4232 44.7414 46.2547 45.2792 45.573 44.6339C44.794 43.7735 46.5468 41.9451 46.1573 39.7941C47.0337 40.6545 45.9625 42.3753 46.8389 43.3433C47.4232 44.0961 48.2022 41.9451 48.9813 41.1922C48.397 42.913 49.5655 44.849 50.7341 43.3433C50.6367 44.5263 51.1236 44.9565 51.7079 44.9565C52.2921 44.9565 52.779 44.5263 52.6816 43.3433C53.8502 44.849 54.824 42.8055 54.5318 41.1922C54.9213 41.8375 55.5056 42.8055 56.5768 43.1281C56.5768 43.1281 55.603 41.9451 55.603 39.0412C55.603 38.5034 55.4082 35.1693 56.0899 35.2769C56.8689 35.3844 57.9401 35.7071 58.6217 36.2449C58.7191 36.3524 58.7191 36.3524 58.6217 36.2449C58.3296 35.8146 56.8689 34.2014 57.3558 32.8032C57.5505 32.2654 58.9138 28.286 58.9138 28.286C59.3034 30.222 61.5431 32.4805 63.1985 32.4805C62.7116 30.9748 63.588 28.8238 63.8801 27.5332C64.7565 28.0709 66.8989 29.8993 69.6255 29.3616C69.6255 29.3616 68.1648 27.2105 67.8726 25.9199C69.4307 26.0275 73.0337 26.4577 75.955 25.4897C75.955 25.4897 73.5206 24.6293 73.1311 24.0915C75.5655 23.6613 84.3296 20.9725 84.3296 19.2517C84.3296 19.2517 78.5843 20.1121 76.7341 19.5744C79.4607 18.4989 91.0487 14.7346 91.3408 12.476C90.367 12.7986 84.5243 14.0892 83.2584 13.9817C84.8165 13.3364 93.191 8.49657 94.4569 7.74371C96.015 6.8833 100.007 3.5492 98.9363 3.65675C97.6704 3.7643 95.8202 4.83982 94.5543 5.37757C93.97 4.83982 92.412 5.37757 91.8277 5.59268C90.367 6.23799 80.4344 11.1854 70.3071 12.476C68.8464 12.6911 67.2884 12.9062 66.1198 13.9817C64.8539 15.2723 63.4906 20.5423 58.7191 20.5423Z" />
</svg>
